<svg xmlns="http://www.w3.org/2000/svg" viewBox="0 0 1024 1024" width="1024" height="1024">
  <defs>
    <radialGradient id="bg" cx="0%" cy="0%" r="100%">
      <stop offset="0%" stop-color="#1e293b" />
      <stop offset="100%" stop-color="#0f172a" />
    </radialGradient>
  </defs>
  <rect width="1024" height="1024" fill="url(#bg)" />
  <g transform="translate(256 256) scale(32)" fill="#60a5fa">
    <path d="M2.5 3.5a.5.5 0 0 1 0-1h11a.5.5 0 0 1 0 1zm2-2a.5.5 0 0 1 0-1h7a.5.5 0 0 1 0 1zM0 13a1.5 1.5 0 0 0 1.5 1.5h13A1.5 1.5 0 0 0 16 13V6a1.5 1.5 0 0 0-1.5-1.5h-13A1.5 1.5 0 0 0 0 6zm1.5.5A.5.5 0 0 1 1 13V6a.5.5 0 0 1 .5-.5h13a.5.5 0 0 1 .5.5v7a.5.5 0 0 1-.5.5z" />
  </g>
</svg>
